<?xml version="1.0" encoding="UTF-8"?>
<svg width="689px" height="66px" viewBox="0 0 689 66" version="1.1" xmlns="http://www.w3.org/2000/svg" xmlns:xlink="http://www.w3.org/1999/xlink">
    <!-- Generator: Sketch Beta 46 (44404) - http://www.bohemiancoding.com/sketch -->
    <title>dl-bottom</title>
    <desc>Created with Sketch Beta.</desc>
    <defs></defs>
    <g id="Page-1" stroke="none" stroke-width="1" fill="none" fill-rule="evenodd">
        <g id="dl-bottom" transform="translate(1.000000, 0.000000)">
            <path d="M0,44.8536585 C72.3866058,54.1059927 172.929403,56.5043667 301.628392,52.0487805 C396.639455,46.441457 467.019413,41.1650342 512.768267,36.2195122 C557.863193,30.3146406 616.273771,20.2414699 688,6 L688,65 L0,65 C-7.58800349e-22,51.2027266 -7.58800349e-22,44.4872795 0,44.8536585 Z" id="Path" fill="#D4138B"></path>
            <path d="M68.8055556,65 L106,65 C81.6650597,59.8971253 60.6835783,51.7119401 43.0555556,40.4444444 C25.9122451,29.7688658 12.5603933,16.2873843 3,0 C11.659596,17.174359 20.7197812,30.6558405 30.1805556,40.4444444 C40.0433374,49.8033618 52.9183374,57.9885469 68.8055556,65 Z" id="Path-2" fill="#3C5DAC"></path>
            <path d="M0,65 C2.70401237,53.4486697 6.02452519,44.8332851 9.96153846,39.1538462 C13.4717034,33.5618803 22.4845239,23.5105982 37,9 C26.4153821,22.1674327 19.2999975,32.2187148 15.6538462,39.1538462 C11.8598603,46.1764506 9.01370642,54.7918352 7.11538462,65 L0,65 Z" id="Path-3" fill="#0FA4AC"></path>
        </g>
    </g>
</svg>